<!-- icon666.com - MILLIONS vector ICONS FREE --><svg version="1.1" id="Capa_1" xmlns="http://www.w3.org/2000/svg" xmlns:xlink="http://www.w3.org/1999/xlink" x="0px" y="0px" viewBox="0 0 476.53 476.53" style="enable-background:new 0 0 476.53 476.53;" xml:space="preserve"><g><path style="fill:#D32A2A;" d="M319.149,382.08l-6.31,5.6c-0.82,0.72-1.18,1.83-0.94,2.89l1.81,8.25l-7.28-4.28 c-0.46-0.28-0.99-0.41-1.52-0.41c-0.52,0-1.05,0.13-1.52,0.41l-7.28,4.28l1.82-8.25c0.24-1.06-0.12-2.17-0.94-2.89l-6.31-5.6 l8.4-0.82c1.08-0.11,2.02-0.79,2.46-1.79l3.37-7.74l3.38,7.74c0.44,1,1.38,1.68,2.46,1.79L319.149,382.08z"></path><path style="fill:#D32A2A;" d="M225.389,432.9l-3.75,3.32c-0.81,0.72-1.17,1.82-0.94,2.89l1.08,4.89l-4.32-2.54 c-0.46-0.27-0.99-0.41-1.52-0.41c-0.52,0-1.05,0.14-1.51,0.41l-4.32,2.54l1.08-4.89c0.23-1.07-0.13-2.17-0.94-2.89l-3.75-3.32 l4.98-0.49c1.09-0.11,2.03-0.79,2.46-1.79l2-4.59l2.01,4.59c0.43,1,1.37,1.68,2.46,1.79L225.389,432.9z"></path><path style="fill:#D32A2A;" d="M224.289,262.68l-5.32,4.72c-0.81,0.72-1.17,1.83-0.93,2.89l1.53,6.94l-6.14-3.6 c-0.46-0.27-0.99-0.41-1.52-0.41c-0.52,0-1.05,0.14-1.52,0.41l-6.13,3.6l1.53-6.94c0.24-1.06-0.12-2.17-0.94-2.89l-5.31-4.72 l7.07-0.69c1.08-0.1,2.03-0.79,2.46-1.78l2.84-6.52l2.85,6.52c0.43,0.99,1.37,1.68,2.46,1.78L224.289,262.68z"></path><path style="fill:#D32A2A;" d="M253.269,21.4l-6.72,5.97c-0.82,0.72-1.18,1.83-0.94,2.89l1.93,8.78l-7.75-4.55 c-0.94-0.55-2.1-0.55-3.04,0l-7.76,4.55l1.94-8.78c0.23-1.06-0.13-2.17-0.94-2.89l-6.73-5.97l8.95-0.87 c1.08-0.11,2.02-0.79,2.46-1.79l3.6-8.24l3.59,8.24c0.44,1,1.38,1.68,2.46,1.79L253.269,21.4z"></path><path style="fill:#D32A2A;" d="M266.909,113.44l-1.9,1.69c-0.81,0.72-1.17,1.83-0.94,2.89l0.55,2.48l-2.19-1.28 c-0.47-0.28-1-0.42-1.52-0.42c-0.53,0-1.06,0.14-1.52,0.42l-2.2,1.28l0.55-2.48c0.24-1.06-0.12-2.17-0.94-2.89l-1.9-1.69l2.53-0.25 c1.08-0.1,2.02-0.79,2.46-1.78l1.02-2.33l1.01,2.33c0.44,1,1.38,1.68,2.46,1.78L266.909,113.44z"></path><g><path style="fill:#FCEE21;" d="M352.479,345.13c4.97,0,9,4.04,9,9s-4.03,9-9,9c-4.96,0-9-4.04-9-9S347.519,345.13,352.479,345.13z "></path><path style="fill:#FCEE21;" d="M153.459,235.15c3.77,0,6.83,3.06,6.83,6.82s-3.06,6.82-6.83,6.82c-3.76,0-6.82-3.06-6.82-6.82 S149.699,235.15,153.459,235.15z"></path><path style="fill:#FCEE21;" d="M305.909,153.98c2.49,0,4.5,2.02,4.5,4.5c0,2.48-2.01,4.5-4.5,4.5c-2.48,0-4.5-2.02-4.5-4.5 C301.409,156,303.429,153.98,305.909,153.98z"></path><g><path style="fill:#FCEE21;" d="M173.579,401.17c4.96,0,9,4.03,9,9c0,4.96-4.04,9-9,9c-4.97,0-9-4.04-9-9 C164.579,405.2,168.609,401.17,173.579,401.17z"></path><path style="fill:#FCEE21;" d="M262.909,318.7c4.97,0,9,4.04,9,9c0,4.97-4.03,9-9,9c-4.96,0-9-4.03-9-9 C253.909,322.74,257.949,318.7,262.909,318.7z"></path><path style="fill:#FCEE21;" d="M161.619,305.97c2.75,0,5,2.25,5,5c0,2.76-2.25,5-5,5c-2.76,0-5-2.24-5-5 C156.619,308.22,158.859,305.97,161.619,305.97z"></path><path style="fill:#FCEE21;" d="M280.619,266.97c2.75,0,5,2.25,5,5c0,2.76-2.25,5-5,5c-2.76,0-5-2.24-5-5 C275.619,269.22,277.859,266.97,280.619,266.97z"></path><path style="fill:#FCEE21;" d="M218.909,98.7c4.97,0,9,4.04,9,9c0,4.97-4.03,9-9,9c-4.96,0-9-4.03-9-9 C209.909,102.74,213.949,98.7,218.909,98.7z"></path><circle style="fill:#FCEE21;" cx="255.769" cy="181.9" r="5"></circle></g></g><linearGradient id="SVGID_1_" gradientUnits="userSpaceOnUse" x1="107.4895" y1="413.5981" x2="369.0695" y2="413.5981"><stop offset="0" style="stop-color:#006A37"></stop><stop offset="1" style="stop-color:#008D37"></stop></linearGradient><path style="fill:url(#SVGID_1_);" d="M359.029,427.81c3.43,7.63,6.78,15.28,10.04,22.93c-84.72,26.38-172.7,26.37-261.58-0.04 c13.46-31.63,28.46-63.14,44.73-94.02c6.35,6.61,22.89,22.28,50.06,37.42c28.96,16.14,75.37,34.28,137.71,34.28 C346.169,428.38,352.529,428.19,359.029,427.81z M234.509,432.82c0.9-0.79,1.24-2.04,0.87-3.17c-0.37-1.13-1.38-1.94-2.57-2.06 l-10.07-0.98l-4.05-9.28c-0.47-1.09-1.55-1.8-2.75-1.8c-1.19,0-2.27,0.71-2.75,1.8l-4.04,9.28l-10.07,0.98 c-1.19,0.12-2.2,0.93-2.57,2.06c-0.36,1.13-0.03,2.38,0.87,3.17l7.57,6.72l-2.18,9.88c-0.26,1.17,0.2,2.37,1.17,3.07 c0.96,0.71,2.25,0.77,3.28,0.16l8.72-5.12l8.73,5.12c0.47,0.28,1,0.42,1.52,0.42c0.62,0,1.24-0.2,1.76-0.58 c0.97-0.7,1.43-1.9,1.17-3.07l-2.18-9.88L234.509,432.82z M188.579,410.17c0-8.27-6.73-15-15-15c-8.27,0-15,6.73-15,15 c0,8.27,6.73,15,15,15C181.849,425.17,188.579,418.44,188.579,410.17z"></path><linearGradient id="SVGID_2_" gradientUnits="userSpaceOnUse" x1="128.2295" y1="344.3412" x2="356.3694" y2="344.3412"><stop offset="0" style="stop-color:#006A37"></stop><stop offset="1" style="stop-color:#008D37"></stop></linearGradient><path style="fill:url(#SVGID_2_);" d="M196.189,292.38c28.14,14.65,62.48,19.21,94.35,19.21c16.42,0,32.16-1.22,46.09-2.89 c3.97,7.32,7.88,14.65,11.68,21.99c-11.4-1.05-22.9-1.95-34.27-2.67c-1.1-0.07-2.14,0.46-2.72,1.39c-0.59,0.92-0.62,2.1-0.09,3.06 c16.24,29.27,31.36,59.25,45.14,89.47c-69.21,3.54-120.16-15.84-150.92-32.94c-28.71-15.96-45.57-32.89-50.26-37.93 c3.32-6.23,6.69-12.43,10.11-18.6c0.54-0.96,0.5-2.14-0.08-3.06c-0.59-0.93-1.62-1.45-2.73-1.39c-11.39,0.72-22.89,1.62-34.26,2.67 c11.19-21.62,23.13-43.13,35.67-64.37C168.169,272.14,177.809,282.81,196.189,292.38z M277.909,327.7c0-8.27-6.72-15-15-15 c-8.27,0-15,6.73-15,15c0,8.28,6.73,15,15,15C271.189,342.7,277.909,335.98,277.909,327.7z M328.279,382 c0.89-0.79,1.23-2.03,0.86-3.17c-0.37-1.13-1.37-1.94-2.56-2.06l-13.49-1.31l-5.43-12.43c-0.47-1.09-1.55-1.8-2.75-1.8 c-1.19,0-2.27,0.71-2.75,1.8l-5.42,12.43l-13.49,1.31c-1.19,0.12-2.19,0.93-2.56,2.06c-0.37,1.14-0.03,2.38,0.86,3.17l10.14,9 l-2.91,13.24c-0.26,1.16,0.2,2.37,1.16,3.07c0.97,0.7,2.26,0.77,3.29,0.16l11.68-6.86l11.69,6.86c0.47,0.28,1,0.41,1.52,0.41 c0.62,0,1.24-0.19,1.77-0.57c0.96-0.7,1.42-1.91,1.16-3.07l-2.91-13.24L328.279,382z M172.619,310.97c0-6.06-4.94-11-11-11 c-6.07,0-11,4.94-11,11c0,6.07,4.93,11,11,11C167.679,321.97,172.619,317.04,172.619,310.97z"></path><linearGradient id="SVGID_3_" gradientUnits="userSpaceOnUse" x1="157.7495" y1="236.4977" x2="333.5594" y2="236.4977"><stop offset="0" style="stop-color:#006A37"></stop><stop offset="1" style="stop-color:#008D37"></stop></linearGradient><path style="fill:url(#SVGID_3_);" d="M201.369,285.89l10.54-6.19l10.55,6.19c1.02,0.6,2.31,0.54,3.28-0.16 c0.96-0.7,1.42-1.91,1.16-3.07l-2.63-11.94l9.15-8.11c0.89-0.79,1.23-2.04,0.86-3.17c-0.37-1.14-1.37-1.95-2.56-2.06l-12.17-1.19 l-4.89-11.2c-0.47-1.1-1.55-1.8-2.75-1.8c-1.19,0-2.27,0.7-2.75,1.8l-4.88,11.2l-12.17,1.19c-1.19,0.11-2.19,0.92-2.56,2.06 c-0.37,1.13-0.03,2.38,0.86,3.17l9.15,8.11l-2.64,11.94c-0.25,1.16,0.21,2.37,1.17,3.07c0.52,0.38,1.14,0.57,1.76,0.57 C200.379,286.3,200.899,286.17,201.369,285.89z M333.559,303.03c-39.68,4.53-93.63,5.1-134.08-15.7 c-20.54-10.58-29.62-22.7-32.21-26.71c8.12-13.6,16.49-27.07,25.08-40.38c0.61-0.93,0.65-2.13,0.09-3.11 c-0.55-0.97-1.6-1.53-2.72-1.51c-10.6,0.39-21.33,0.92-31.97,1.58c10.22-16.71,20.93-33.36,31.98-49.8 c4.13,4.63,13.14,13.5,27.76,21.89c16.19,9.28,42.2,19.44,78.53,19.44c5.46,0,11.16-0.25,17.08-0.74c1.91,3.07,3.81,6.14,5.69,9.21 c-10.65-0.66-21.38-1.19-31.98-1.58c-1.11-0.02-2.16,0.54-2.72,1.51c-0.55,0.98-0.52,2.18,0.09,3.11 C301.649,247.27,318.179,275,333.559,303.03z M291.619,271.97c0-6.06-4.94-11-11-11c-6.07,0-11,4.94-11,11c0,6.07,4.93,11,11,11 C286.679,282.97,291.619,278.04,291.619,271.97z"></path><linearGradient id="SVGID_4_" gradientUnits="userSpaceOnUse" x1="171.6395" y1="124.5641" x2="309.4895" y2="124.5641"><stop offset="0" style="stop-color:#006A37"></stop><stop offset="1" style="stop-color:#008D37"></stop></linearGradient><path style="fill:url(#SVGID_4_);" d="M309.489,202.25c-41.98,2.88-71.31-8.07-88.72-18c-15.41-8.79-24.38-18.28-27.56-22 c4.78-7.03,9.61-14.03,14.51-20.96c0.65-0.93,0.73-2.14,0.19-3.14c-0.53-1-1.6-1.62-2.72-1.59c-11.13,0.27-22.39,0.67-33.55,1.21 c20.8-31.01,43.18-61.71,66.63-91.36c23.44,29.65,45.83,60.35,66.62,91.36c-11.15-0.54-22.41-0.94-33.55-1.21 c-1.14-0.04-2.19,0.59-2.72,1.59s-0.46,2.21,0.2,3.14C282.899,161.24,296.519,181.67,309.489,202.25z M276.039,113.37 c0.89-0.79,1.23-2.04,0.86-3.17c-0.37-1.14-1.37-1.95-2.56-2.06l-7.62-0.75l-3.06-7.02c-0.48-1.09-1.56-1.8-2.75-1.8 c-1.2,0-2.28,0.71-2.75,1.81l-3.07,7.01l-7.62,0.75c-1.19,0.11-2.19,0.92-2.56,2.06c-0.37,1.13-0.03,2.38,0.86,3.17l5.73,5.08 l-1.65,7.48c-0.25,1.16,0.21,2.37,1.17,3.07c0.97,0.7,2.25,0.77,3.28,0.16l6.61-3.88l6.6,3.88c0.47,0.28,1,0.41,1.52,0.41 c0.62,0,1.24-0.19,1.76-0.57c0.97-0.7,1.43-1.91,1.17-3.07l-1.65-7.48L276.039,113.37z M266.769,181.9c0-6.07-4.93-11-11-11 c-6.06,0-11,4.93-11,11c0,6.06,4.94,11,11,11C261.839,192.9,266.769,187.96,266.769,181.9z M233.909,107.7c0-8.27-6.72-15-15-15 c-8.27,0-15,6.73-15,15c0,8.28,6.73,15,15,15C227.189,122.7,233.909,115.98,233.909,107.7z"></path><linearGradient id="SVGID_5_" gradientUnits="userSpaceOnUse" x1="100.415" y1="238.265" x2="376.115" y2="238.265"><stop offset="0" style="stop-color:#537E00"></stop><stop offset="0.205" style="stop-color:#5C9900"></stop><stop offset="0.3963" style="stop-color:#63AB00"></stop><stop offset="0.5345" style="stop-color:#65B100"></stop><stop offset="0.6747" style="stop-color:#64AE00"></stop><stop offset="0.7833" style="stop-color:#61A400"></stop><stop offset="0.8812" style="stop-color:#5B9400"></stop><stop offset="0.9725" style="stop-color:#537D00"></stop><stop offset="1" style="stop-color:#507400"></stop></linearGradient><path style="fill:url(#SVGID_5_);" d="M375.879,451.44c0.33,0.78,0.31,1.66-0.04,2.42c-0.35,0.77-1.01,1.35-1.81,1.61 c-43.95,14.04-88.76,21.06-134.12,21.06c-45.35,0-91.24-7.02-137.37-21.05c-0.81-0.25-1.48-0.83-1.84-1.6 c-0.36-0.77-0.38-1.65-0.05-2.44c16.69-39.5,35.77-78.87,56.75-117.07c-11.36,0.77-22.79,1.72-34.06,2.81 c-1.08,0.1-2.16-0.39-2.77-1.3c-0.62-0.91-0.69-2.08-0.19-3.05c14.29-27.89,29.79-55.64,46.29-82.87 c5.72-9.44,11.57-18.82,17.52-28.12c-9.07,0.38-18.2,0.88-27.28,1.45v6.34c5.4,1.52,9.38,6.47,9.38,12.34 c0,2.43-0.68,4.7-1.86,6.64c-2.25,3.7-6.33,6.18-10.97,6.18c-7.07,0-12.82-5.75-12.82-12.82c0-6.2,4.42-11.38,10.27-12.57v-6.12 c-0.52-0.25-0.98-0.64-1.29-1.16c-0.58-0.95-0.58-2.15,0-3.11c15.59-25.72,32.32-51.36,49.76-76.3 c-11.12,0.32-22.33,0.77-33.39,1.35c-1.12,0.06-2.2-0.52-2.76-1.51c-0.56-0.98-0.52-2.2,0.11-3.14 c21.54-32.44,44.86-64.56,69.33-95.57l-6.57,3.86c-0.47,0.28-1,0.41-1.52,0.41c-0.62,0-1.24-0.19-1.76-0.57 c-0.97-0.7-1.43-1.91-1.17-3.07l3.04-13.78l-10.56-9.36c-0.89-0.79-1.23-2.04-0.86-3.17c0.37-1.14,1.38-1.95,2.56-2.06l14.05-1.37 l5.64-12.93c0.47-1.1,1.55-1.8,2.75-1.8c1.19,0,2.27,0.7,2.75,1.8l5.64,12.93l14.04,1.37c1.19,0.11,2.19,0.92,2.56,2.06 c0.37,1.13,0.03,2.38-0.86,3.17l-10.55,9.36l3.03,13.78c0.26,1.16-0.2,2.37-1.16,3.07c-0.97,0.7-2.26,0.77-3.29,0.16l-6.56-3.86 c24.46,31.01,47.78,63.13,69.33,95.57c0.62,0.94,0.67,2.16,0.1,3.14c-0.56,0.99-1.63,1.57-2.76,1.51 c-0.54-0.03-1.09-0.05-1.63-0.07v4.43c4.34,1.3,7.5,5.31,7.5,10.06c0,5.79-4.71,10.5-10.5,10.5s-10.5-4.71-10.5-10.5 c0-4.75,3.17-8.76,7.5-10.06v-4.71c-8.57-0.4-17.18-0.75-25.76-1c17.45,24.94,34.17,50.58,49.76,76.3c0.58,0.96,0.58,2.16,0,3.11 c-0.58,0.96-1.65,1.52-2.76,1.44c-10.55-0.7-21.22-1.28-31.81-1.72c23.12,36.11,44.58,73.43,63.82,110.99 c0.5,0.97,0.43,2.14-0.19,3.05c-0.3,0.45-0.72,0.79-1.19,1.01v2.43c7.18,1.11,12.7,7.32,12.7,14.81c0,8.27-6.73,15-15,15 s-15-6.73-15-15c0-6.99,4.82-12.86,11.3-14.52v-2.84c-9.85-0.92-19.78-1.73-29.65-2.4 C340.109,372.57,359.189,411.94,375.879,451.44z M369.069,450.74c-3.26-7.65-6.61-15.3-10.04-22.93 c-6.5,0.38-12.86,0.57-19.04,0.57c-62.34,0-108.75-18.14-137.71-34.28c-27.17-15.14-43.71-30.81-50.06-37.42 c-16.27,30.88-31.27,62.39-44.73,94.02C196.369,477.11,284.349,477.12,369.069,450.74z M361.479,354.13c0-4.96-4.03-9-9-9 c-4.96,0-9,4.04-9,9s4.04,9,9,9C357.449,363.13,361.479,359.09,361.479,354.13z M205.449,389c30.76,17.1,81.71,36.48,150.92,32.94 c-13.78-30.22-28.9-60.2-45.14-89.47c-0.53-0.96-0.5-2.14,0.09-3.06c0.58-0.93,1.62-1.46,2.72-1.39 c11.37,0.72,22.87,1.62,34.27,2.67c-3.8-7.34-7.71-14.67-11.68-21.99c-13.93,1.67-29.67,2.89-46.09,2.89 c-31.87,0-66.21-4.56-94.35-19.21c-18.38-9.57-28.02-20.24-32.29-26.06c-12.54,21.24-24.48,42.75-35.67,64.37 c11.37-1.05,22.87-1.95,34.26-2.67c1.11-0.06,2.14,0.46,2.73,1.39c0.58,0.92,0.62,2.1,0.08,3.06c-3.42,6.17-6.79,12.37-10.11,18.6 C159.879,356.11,176.739,373.04,205.449,389z M318.789,217.2c-1.88-3.07-3.78-6.14-5.69-9.21c-5.92,0.49-11.62,0.74-17.08,0.74 c-36.33,0-62.34-10.16-78.53-19.44c-14.62-8.39-23.63-17.26-27.76-21.89c-11.05,16.44-21.76,33.09-31.98,49.8 c10.64-0.66,21.37-1.19,31.97-1.58c1.12-0.02,2.17,0.54,2.72,1.51c0.56,0.98,0.52,2.18-0.09,3.11 c-8.59,13.31-16.96,26.78-25.08,40.38c2.59,4.01,11.67,16.13,32.21,26.71c40.45,20.8,94.4,20.23,134.08,15.7 c-15.38-28.03-31.91-55.76-49.38-82.79c-0.61-0.93-0.64-2.13-0.09-3.11c0.56-0.97,1.61-1.53,2.72-1.51 C297.409,216.01,308.139,216.54,318.789,217.2z M310.409,158.48c0-2.48-2.01-4.5-4.5-4.5c-2.48,0-4.5,2.02-4.5,4.5 c0,2.48,2.02,4.5,4.5,4.5C308.399,162.98,310.409,160.96,310.409,158.48z M220.769,184.25c17.41,9.93,46.74,20.88,88.72,18 c-12.97-20.58-26.59-41.01-40.67-60.96c-0.66-0.93-0.73-2.14-0.2-3.14s1.58-1.63,2.72-1.59c11.14,0.27,22.4,0.67,33.55,1.21 c-20.79-31.01-43.18-61.71-66.62-91.36c-23.45,29.65-45.83,60.35-66.63,91.36c11.16-0.54,22.42-0.94,33.55-1.21 c1.12-0.03,2.19,0.59,2.72,1.59c0.54,1,0.46,2.21-0.19,3.14c-4.9,6.93-9.73,13.93-14.51,20.96 C196.389,165.97,205.359,175.46,220.769,184.25z M246.549,27.37l6.72-5.97l-8.95-0.87c-1.08-0.11-2.02-0.79-2.46-1.79l-3.59-8.24 l-3.6,8.24c-0.44,1-1.38,1.68-2.46,1.79l-8.95,0.87l6.73,5.97c0.81,0.72,1.17,1.83,0.94,2.89l-1.94,8.78l7.76-4.55 c0.94-0.55,2.1-0.55,3.04,0l7.75,4.55l-1.93-8.78C245.369,29.2,245.729,28.09,246.549,27.37z M160.289,241.97 c0-3.76-3.06-6.82-6.83-6.82c-3.76,0-6.82,3.06-6.82,6.82s3.06,6.82,6.82,6.82C157.229,248.79,160.289,245.73,160.289,241.97z"></path><g><linearGradient id="SVGID_6_" gradientUnits="userSpaceOnUse" x1="280.5419" y1="384.5575" x2="329.287" y2="384.5575"><stop offset="0.5098" style="stop-color:#65B100"></stop><stop offset="0.5345" style="stop-color:#65B100"></stop></linearGradient><path style="fill:url(#SVGID_6_);" d="M329.139,378.83c0.37,1.14,0.03,2.38-0.86,3.17l-10.14,9l2.91,13.24 c0.26,1.16-0.2,2.37-1.16,3.07c-0.53,0.38-1.15,0.57-1.77,0.57c-0.52,0-1.05-0.13-1.52-0.41l-11.69-6.86l-11.68,6.86 c-1.03,0.61-2.32,0.54-3.29-0.16c-0.96-0.7-1.42-1.91-1.16-3.07l2.91-13.24l-10.14-9c-0.89-0.79-1.23-2.03-0.86-3.17 c0.37-1.13,1.37-1.94,2.56-2.06l13.49-1.31l5.42-12.43c0.48-1.09,1.56-1.8,2.75-1.8c1.2,0,2.28,0.71,2.75,1.8l5.43,12.43 l13.49,1.31C327.769,376.89,328.769,377.7,329.139,378.83z M312.839,387.68l6.31-5.6l-8.4-0.82c-1.08-0.11-2.02-0.79-2.46-1.79 l-3.38-7.74l-3.37,7.74c-0.44,1-1.38,1.68-2.46,1.79l-8.4,0.82l6.31,5.6c0.82,0.72,1.18,1.83,0.94,2.89l-1.82,8.25l7.28-4.28 c0.47-0.28,1-0.41,1.52-0.41c0.53,0,1.06,0.13,1.52,0.41l7.28,4.28l-1.81-8.25C311.659,389.51,312.019,388.4,312.839,387.68z"></path><linearGradient id="SVGID_7_" gradientUnits="userSpaceOnUse" x1="269.6194" y1="271.97" x2="291.6194" y2="271.97"><stop offset="0.5098" style="stop-color:#65B100"></stop><stop offset="0.5345" style="stop-color:#65B100"></stop></linearGradient><path style="fill:url(#SVGID_7_);" d="M280.619,260.97c6.06,0,11,4.94,11,11c0,6.07-4.94,11-11,11c-6.07,0-11-4.93-11-11 C269.619,265.91,274.549,260.97,280.619,260.97z M285.619,271.97c0-2.75-2.25-5-5-5c-2.76,0-5,2.25-5,5c0,2.76,2.24,5,5,5 C283.369,276.97,285.619,274.73,285.619,271.97z"></path><linearGradient id="SVGID_8_" gradientUnits="userSpaceOnUse" x1="244.7619" y1="114.0725" x2="277.047" y2="114.0725"><stop offset="0.5098" style="stop-color:#65B100"></stop><stop offset="0.5345" style="stop-color:#65B100"></stop></linearGradient><path style="fill:url(#SVGID_8_);" d="M276.899,110.2c0.37,1.13,0.03,2.38-0.86,3.17l-5.73,5.08l1.65,7.48 c0.26,1.16-0.2,2.37-1.17,3.07c-0.52,0.38-1.14,0.57-1.76,0.57c-0.52,0-1.05-0.13-1.52-0.41l-6.6-3.88l-6.61,3.88 c-1.03,0.61-2.31,0.54-3.28-0.16c-0.96-0.7-1.42-1.91-1.17-3.07l1.65-7.48l-5.73-5.08c-0.89-0.79-1.23-2.04-0.86-3.17 c0.37-1.14,1.37-1.95,2.56-2.06l7.62-0.75l3.07-7.01c0.47-1.1,1.55-1.81,2.75-1.81c1.19,0,2.27,0.71,2.75,1.8l3.06,7.02l7.62,0.75 C275.529,108.25,276.529,109.06,276.899,110.2z M265.009,115.13l1.9-1.69l-2.53-0.25c-1.08-0.1-2.02-0.78-2.46-1.78l-1.01-2.33 l-1.02,2.33c-0.44,0.99-1.38,1.68-2.46,1.78l-2.53,0.25l1.9,1.69c0.82,0.72,1.18,1.83,0.94,2.89l-0.55,2.48l2.2-1.28 c0.46-0.28,0.99-0.42,1.52-0.42c0.52,0,1.05,0.14,1.52,0.42l2.19,1.28l-0.55-2.48C263.839,116.96,264.199,115.85,265.009,115.13z"></path><linearGradient id="SVGID_9_" gradientUnits="userSpaceOnUse" x1="247.9095" y1="327.7" x2="277.9095" y2="327.7"><stop offset="0.5098" style="stop-color:#65B100"></stop><stop offset="0.5345" style="stop-color:#65B100"></stop></linearGradient><path style="fill:url(#SVGID_9_);" d="M262.909,312.7c8.28,0,15,6.73,15,15c0,8.28-6.72,15-15,15c-8.27,0-15-6.72-15-15 C247.909,319.43,254.639,312.7,262.909,312.7z M271.909,327.7c0-4.96-4.03-9-9-9c-4.96,0-9,4.04-9,9c0,4.97,4.04,9,9,9 C267.879,336.7,271.909,332.67,271.909,327.7z"></path><linearGradient id="SVGID_10_" gradientUnits="userSpaceOnUse" x1="244.7695" y1="181.9" x2="266.7695" y2="181.9"><stop offset="0.5098" style="stop-color:#65B100"></stop><stop offset="0.5345" style="stop-color:#65B100"></stop></linearGradient><path style="fill:url(#SVGID_10_);" d="M255.769,170.9c6.07,0,11,4.93,11,11c0,6.06-4.93,11-11,11c-6.06,0-11-4.94-11-11 C244.769,175.83,249.709,170.9,255.769,170.9z M260.769,181.9c0-2.76-2.24-5-5-5s-5,2.24-5,5c0,2.76,2.24,5,5,5 S260.769,184.66,260.769,181.9z"></path><linearGradient id="SVGID_11_" gradientUnits="userSpaceOnUse" x1="196.3664" y1="434.3" x2="235.5268" y2="434.3"><stop offset="0.5098" style="stop-color:#65B100"></stop><stop offset="0.5345" style="stop-color:#65B100"></stop></linearGradient><path style="fill:url(#SVGID_11_);" d="M235.379,429.65c0.37,1.13,0.03,2.38-0.87,3.17l-7.57,6.72l2.18,9.88 c0.26,1.17-0.2,2.37-1.17,3.07c-0.52,0.38-1.14,0.58-1.76,0.58c-0.52,0-1.05-0.14-1.52-0.42l-8.73-5.12l-8.72,5.12 c-1.03,0.61-2.32,0.55-3.28-0.16c-0.97-0.7-1.43-1.9-1.17-3.07l2.18-9.88l-7.57-6.72c-0.9-0.79-1.23-2.04-0.87-3.17 c0.37-1.13,1.38-1.94,2.57-2.06l10.07-0.98l4.04-9.28c0.48-1.09,1.56-1.8,2.75-1.8c1.2,0,2.28,0.71,2.75,1.8l4.05,9.28l10.07,0.98 C233.999,427.71,235.009,428.52,235.379,429.65z M221.639,436.22l3.75-3.32l-4.98-0.49c-1.09-0.11-2.03-0.79-2.46-1.79l-2.01-4.59 l-2,4.59c-0.43,1-1.37,1.68-2.46,1.79l-4.98,0.49l3.75,3.32c0.81,0.72,1.17,1.82,0.94,2.89l-1.08,4.89l4.32-2.54 c0.46-0.27,0.99-0.41,1.51-0.41c0.53,0,1.06,0.14,1.52,0.41l4.32,2.54l-1.08-4.89C220.469,438.04,220.829,436.94,221.639,436.22z"></path><linearGradient id="SVGID_12_" gradientUnits="userSpaceOnUse" x1="189.4019" y1="264.7455" x2="234.427" y2="264.7455"><stop offset="0.5098" style="stop-color:#65B100"></stop><stop offset="0.5345" style="stop-color:#65B100"></stop></linearGradient><path style="fill:url(#SVGID_12_);" d="M234.279,259.44c0.37,1.13,0.03,2.38-0.86,3.17l-9.15,8.11l2.63,11.94 c0.26,1.16-0.2,2.37-1.16,3.07c-0.97,0.7-2.26,0.76-3.28,0.16l-10.55-6.19l-10.54,6.19c-0.47,0.28-0.99,0.41-1.52,0.41 c-0.62,0-1.24-0.19-1.76-0.57c-0.96-0.7-1.42-1.91-1.17-3.07l2.64-11.94l-9.15-8.11c-0.89-0.79-1.23-2.04-0.86-3.17 c0.37-1.14,1.37-1.95,2.56-2.06l12.17-1.19l4.88-11.2c0.48-1.1,1.56-1.8,2.75-1.8c1.2,0,2.28,0.7,2.75,1.8l4.89,11.2l12.17,1.19 C232.909,257.49,233.909,258.3,234.279,259.44z M218.969,267.4l5.32-4.72l-7.07-0.69c-1.09-0.1-2.03-0.79-2.46-1.78l-2.85-6.52 l-2.84,6.52c-0.43,0.99-1.38,1.68-2.46,1.78l-7.07,0.69l5.31,4.72c0.82,0.72,1.18,1.83,0.94,2.89l-1.53,6.94l6.13-3.6 c0.47-0.27,1-0.41,1.52-0.41c0.53,0,1.06,0.14,1.52,0.41l6.14,3.6l-1.53-6.94C217.799,269.23,218.159,268.12,218.969,267.4z"></path><linearGradient id="SVGID_13_" gradientUnits="userSpaceOnUse" x1="203.9095" y1="107.7" x2="233.9095" y2="107.7"><stop offset="0.5098" style="stop-color:#65B100"></stop><stop offset="0.5345" style="stop-color:#65B100"></stop></linearGradient><path style="fill:url(#SVGID_13_);" d="M218.909,92.7c8.28,0,15,6.73,15,15c0,8.28-6.72,15-15,15c-8.27,0-15-6.72-15-15 C203.909,99.43,210.639,92.7,218.909,92.7z M227.909,107.7c0-4.96-4.03-9-9-9c-4.96,0-9,4.04-9,9c0,4.97,4.04,9,9,9 C223.879,116.7,227.909,112.67,227.909,107.7z"></path><linearGradient id="SVGID_14_" gradientUnits="userSpaceOnUse" x1="158.5795" y1="410.17" x2="188.5795" y2="410.17"><stop offset="0.5098" style="stop-color:#65B100"></stop><stop offset="0.5345" style="stop-color:#65B100"></stop></linearGradient><path style="fill:url(#SVGID_14_);" d="M173.579,395.17c8.27,0,15,6.73,15,15c0,8.27-6.73,15-15,15c-8.27,0-15-6.73-15-15 C158.579,401.9,165.309,395.17,173.579,395.17z M182.579,410.17c0-4.97-4.04-9-9-9c-4.97,0-9,4.03-9,9c0,4.96,4.03,9,9,9 C178.539,419.17,182.579,415.13,182.579,410.17z"></path><linearGradient id="SVGID_15_" gradientUnits="userSpaceOnUse" x1="150.6195" y1="310.97" x2="172.6195" y2="310.97"><stop offset="0.5098" style="stop-color:#65B100"></stop><stop offset="0.5345" style="stop-color:#65B100"></stop></linearGradient><path style="fill:url(#SVGID_15_);" d="M161.619,299.97c6.06,0,11,4.94,11,11c0,6.07-4.94,11-11,11c-6.07,0-11-4.93-11-11 C150.619,304.91,155.549,299.97,161.619,299.97z M166.619,310.97c0-2.75-2.25-5-5-5c-2.76,0-5,2.25-5,5c0,2.76,2.24,5,5,5 C164.369,315.97,166.619,313.73,166.619,310.97z"></path></g></g></svg>